<svg preserveAspectRatio="none" width="100%" height="100%" overflow="visible" style="display: block;" viewBox="0 0 34 44" fill="none" xmlns="http://www.w3.org/2000/svg">
<path id="Vector" d="M34 27.0555C34 37.0703 25.2746 45.0821 15.0449 43.8804C6.52008 42.8789 -0.099167 35.0674 0.00112468 26.4547C0.00112468 21.247 3.11016 16.6402 6.41979 13.0349C10.2309 8.92881 13.1393 7.42659 16.2484 0.816845C16.7498 -0.28478 18.3545 -0.384928 18.4548 1.21744C18.6554 4.82275 18.4548 7.52674 17.6524 10.1306C17.151 11.9332 15.9475 14.7374 14.9446 16.4399C13.8414 18.4428 13.5405 20.4458 13.8414 22.0482C14.3428 24.7521 16.1481 26.5548 18.8559 27.0555C23.1685 27.8567 26.9796 24.652 26.9796 20.4458C26.9796 19.1439 26.3778 17.3412 25.6758 15.7389C25.1743 14.4369 26.5784 13.2352 27.6816 14.0363C31.7936 16.8405 34 21.247 34 27.0555Z" fill="var(--fill-0, #F83E3C)"/>
</svg>
