<svg preserveAspectRatio="none" width="100%" height="100%" overflow="visible" style="display: block;" viewBox="0 0 77 45.1957" fill="none" xmlns="http://www.w3.org/2000/svg">
<g id="layer1">
<path id="path3012" d="M38.512 0L32.5925 8.943H44.3963L38.512 0" fill="var(--fill-0, #E2DED3)"/>
<path id="path3014" d="M26.7084 17.8509L32.5926 8.943L38.5122 17.8509H26.7084Z" fill="var(--fill-0, #E2DED3)"/>
<path id="path3016" d="M38.5122 17.8509H50.3513L44.3965 8.943L38.5122 17.8509Z" fill="var(--fill-0, #E2DED3)"/>
<path id="path3082" d="M0 2.76524L2.89015 11.4448L23.0215 14.4702V16.6029L4.93318 18.5868L8.52095 25.58L23.5198 19.9755L24.4666 21.8106L13.0057 30.4405L17.9388 33.9123L26.3103 24.6376L27.6059 25.8776L23.5198 35.5491L28.453 36.541L30.1971 27.7127C31.749 27.9228 34.0283 27.7127 33.9668 25.58C33.9368 24.5407 33.4498 23.2666 31.6482 22.7133C23.8746 20.326 25.4632 10.6512 27.9049 6.63383C24.9863 8.94302 24.7787 10.1087 23.9683 11.1968C22.6353 10.8434 0 2.76524 0 2.76524Z" fill="var(--fill-0, #E2DED3)"/>
<path id="path3082 1" d="M76.9999 2.76524L74.1098 11.4448L53.9784 14.4702V16.6029L72.0668 18.5868L68.479 25.58L53.4801 19.9755L52.5334 21.8106L63.9943 30.4405L59.0611 33.9123L50.6896 24.6376L49.3941 25.8776L53.4801 35.549L48.5469 36.541L46.8029 27.7127C45.2509 27.9228 42.9716 27.7127 43.0332 25.58C43.0632 24.5407 43.5501 23.2666 45.3517 22.7133C53.1254 20.3261 51.5367 10.6512 49.0951 6.63383C52.0136 8.94302 52.2212 10.1087 53.0317 11.1968C54.3646 10.8434 76.9999 2.76524 76.9999 2.76524Z" fill="var(--fill-0, #E2DED3)"/>
<path id="path3120" d="M31.5675 41.8231L30.7453 44.2781L33.9469 41.2527C33.9469 41.2527 34.2832 40.608 33.5856 40.2856C32.8039 40.2856 32.5927 40.2856 32.4278 40.2856C32.2028 40.2429 32.3757 39.8369 32.3757 39.8369C32.3757 39.8369 33.9819 37.2594 34.8376 35.8714C35.06 34.8394 33.4413 33.9123 32.5927 34.8485C31.5675 36.9032 30.1847 40.2856 29.9729 40.2856C29.7611 40.2856 23.9684 40.2856 23.9684 40.2856C23.9684 40.2856 22.8223 40.4902 23.5199 41.4015C24.2175 42.3129 28.1541 45.1957 28.1541 45.1957L26.653 41.8231H31.5675Z" fill="var(--fill-0, #E2DED3)"/>
<path id="path3120 7" d="M45.4366 41.8231L46.2588 44.2782L43.0572 41.2527C43.0572 41.2527 42.7208 40.608 43.4185 40.2856C44.2002 40.2856 44.4114 40.2856 44.5762 40.2856C44.8013 40.2429 44.6284 39.8369 44.6284 39.8369C44.6284 39.8369 43.0222 37.2594 42.1665 35.8714C41.944 34.8394 43.5627 33.9123 44.4114 34.8485C45.4366 36.9032 46.8194 40.2856 47.0311 40.2856C47.2429 40.2856 53.0357 40.2856 53.0357 40.2856C53.0357 40.2856 54.1818 40.4902 53.4841 41.4015C52.7865 42.3129 48.85 45.1957 48.85 45.1957L50.3511 41.8231H45.4366Z" fill="var(--fill-0, #E2DED3)"/>
<path id="path3156" d="M38.512 20.6039C38.4592 21.6561 37.0486 24.2514 36.6786 24.6377C36.3815 24.9479 35.974 25.5798 35.146 27.7125C34.318 29.8451 34.6603 29.9464 32.9441 31.1951C40.0016 34.4253 35.9744 37.7023 35.9744 38.4555C36.8583 40.6795 38.512 45.1713 38.512 45.1713C38.512 45.1713 40.1635 40.6795 41.0474 38.4555C41.0474 37.7023 37.0203 34.4253 44.0777 31.1951C42.3616 29.9464 42.7039 29.8451 41.8759 27.7125C41.0478 25.5798 40.6403 24.9479 40.3433 24.6377C39.9733 24.2514 38.5649 21.6561 38.512 20.6039V20.6039Z" fill="var(--fill-0, #E2DED3)"/>
</g>
</svg>
